<svg xmlns="http://www.w3.org/2000/svg" width="64.25" height="64" viewBox="0 0 64.25 64">
    <defs>
        <style>
            .cls-1{fill:#8cdd8f;opacity:.35}.cls-2{fill:#1caba2;stroke:#1caba2;stroke-width:.5px}.cls-3{fill:none}
        </style>
    </defs>
    <g id="ic_across_india" transform="translate(-152.75 -336)">
        <g id="Group_1030" data-name="Group 1030" transform="translate(-574 -1798.5)">
            <rect id="Rectangle_555" width="26" height="39" class="cls-1" data-name="Rectangle 555" rx="13" transform="rotate(-90 1459 709.5)"/>
            <g id="noun_Location_Compass_2472723" data-name="noun_Location Compass_2472723" transform="translate(725 2146.068)">
                <path id="Path_827" d="M28.858 21.175a11.518 11.518 0 0 0-11.507 11.507c0 5.8 8.987 17.181 10.011 18.458a1.915 1.915 0 0 0 2.992 0c1.024-1.277 10.011-12.659 10.011-18.458a11.519 11.519 0 0 0-11.507-11.507zm0 25.631c-3.437-4.591-7.671-11.207-7.671-14.124a7.671 7.671 0 0 1 15.342 0c0 2.918-4.235 9.535-7.671 14.124zm3.835-14.124a3.835 3.835 0 1 1-3.835-3.835 3.839 3.839 0 0 1 3.835 3.835zm23-3.834v1.918a1.916 1.916 0 0 1-1.918 1.918h-7.667a1.918 1.918 0 1 1 0-3.835h5.753a23.031 23.031 0 0 0-21.1-22.915v5.655a1.918 1.918 0 1 1-3.835 0V5.933a23.032 23.032 0 0 0-21.1 22.915h5.753a1.918 1.918 0 1 1 0 3.835H3.918A1.917 1.917 0 0 1 2 30.766v-1.918a26.848 26.848 0 1 1 53.7 0z" class="cls-2" data-name="Path 827"/>
            </g>
        </g>
        <path id="Rectangle_884" d="M0 0h64v64H0z" class="cls-3" data-name="Rectangle 884" transform="translate(153 336)"/>
    </g>
</svg>
