<svg xmlns="http://www.w3.org/2000/svg" width="64.65" height="64" viewBox="0 0 64.65 64">
    <defs>
        <style>
            .cls-1{opacity:.35}.cls-2{fill:#8cdd8f}.cls-3{fill:#1caba2;stroke:#1caba2;stroke-width:1.3px}.cls-4{fill:none}
        </style>
    </defs>
    <g id="ic_subscription" transform="translate(-259.35 -336)">
        <g id="Group_1032" data-name="Group 1032" transform="translate(-705.1 -1797.646)">
            <g id="noun_Location_2908222_2_" class="cls-1" data-name="noun_Location_2908222 (2)" transform="translate(977 2136.646)">
                <path id="Path_829" d="M32.588 6A15.328 15.328 0 0 0 17.26 21.328c0 12.458 15.328 25.872 15.328 25.872s15.328-14.374 15.328-25.872A15.328 15.328 0 0 0 32.588 6z" class="cls-2" data-name="Path 829"/>
            </g>
            <g id="noun_ride_2592559" transform="translate(964 2142.5)">
                <path id="Path_828" d="M50.409 26.388v-.11h4.242v-2.535h-4.628A13.953 13.953 0 0 0 36.415 13H20.052A14.111 14.111 0 0 0 6.389 23.8H1.761v2.534H6a10.793 10.793 0 0 0-4.9 9.09v1.266a10.859 10.859 0 0 0 3.416 7.878v4.9A4.62 4.62 0 0 0 9.144 54.1h3.966a4.62 4.62 0 0 0 4.628-4.628v-1.928h21.6v1.928a4.62 4.62 0 0 0 4.625 4.628h3.912a4.62 4.62 0 0 0 4.625-4.628v-5.62a10.734 10.734 0 0 0 2.755-7.162v-1.322a11.107 11.107 0 0 0-4.846-8.98zM20.052 15.479H36.36a11.538 11.538 0 0 1 11.349 9.586 12 12 0 0 0-2.865-.551 6.792 6.792 0 0 0-13.223 0H11.953a10.818 10.818 0 0 0-3.251.5 11.541 11.541 0 0 1 11.35-9.535zm22.313 9.035h-8.209a4.4 4.4 0 0 1 8.209 0zM7.05 49.472v-3.14a15.86 15.86 0 0 0 6.06 1.212h1.79c0 .882.276 3.136-1.569 4.022H9.089a2.082 2.082 0 0 1-2.039-2.094zm42.918 0a2.093 2.093 0 0 1-2.094 2.094H43a3.207 3.207 0 0 1-.405-.823 13.778 13.778 0 0 1-.566-3.2h2.318a10.937 10.937 0 0 0 5.62-1.6v3.526zm2.7-12.782a8.347 8.347 0 0 1-8.319 8.319h-32.4a8.347 8.347 0 0 1-8.315-8.319v-1.322a8.347 8.347 0 0 1 8.319-8.319h32.4a8.347 8.347 0 0 1 8.319 8.319z" class="cls-3" data-name="Path 828"/>
                <circle id="Ellipse_55" cx="2.975" cy="2.975" r="2.975" class="cls-3" data-name="Ellipse 55" transform="translate(10.466 33.164)"/>
                <circle id="Ellipse_56" cx="2.975" cy="2.975" r="2.975" class="cls-3" data-name="Ellipse 56" transform="translate(40.492 33.164)"/>
            </g>
        </g>
        <path id="Rectangle_885" d="M0 0h64v64H0z" class="cls-4" data-name="Rectangle 885" transform="translate(260 336)"/>
    </g>
</svg>
